<svg xmlns="http://www.w3.org/2000/svg" width="24px" height="24px" viewBox="0 0 24 24">
  <path d="M8.22 17.32l-1.238-.513c.22.458.6.843 1.102 1.052 1.09.453 2.346-.065 2.8-1.157.22-.527.222-1.11.004-1.64-.217-.53-.628-.945-1.156-1.165-.523-.218-1.084-.21-1.58-.024l1.28.53c.805.335 1.184 1.26.85 2.065-.334.804-1.257 1.184-2.06.85z"/>
  <path d="M11.99 1.99c-5.306 0-9.647 4.127-9.99 9.345l.004.007 5.38 2.214c.146-.097.302-.18.468-.248.377-.155.776-.226 1.173-.208l2.45-3.56c-.002-.014-.002-.03-.002-.048 0-2.1 1.706-3.81 3.803-3.81 2.098 0 3.802 1.71 3.802 3.81s-1.704 3.81-3.802 3.81h-.085l-3.504 2.504c.01.386-.062.773-.214 1.144-.588 1.413-2.218 2.086-3.63 1.496-.864-.36-1.45-1.108-1.64-1.962L2.41 14.92c1.25 4.104 5.064 7.09 9.578 7.09C17.52 22.01 22 17.53 22 12S17.52 1.99 11.99 1.99z"/>
  <path d="M17.81 9.492c0-1.398-1.137-2.537-2.534-2.537s-2.533 1.14-2.533 2.537c0 1.4 1.137 2.54 2.533 2.54 1.397 0 2.534-1.14 2.534-2.54zm-4.432-.003c0-1.054.852-1.908 1.9-1.908 1.053 0 1.905.854 1.905 1.907 0 1.05-.852 1.905-1.904 1.905-1.05 0-1.902-.854-1.902-1.906z"/>
</svg>
